<?xml version="1.0" encoding="iso-8859-1"?>
<!-- Generator: Adobe Illustrator 19.0.0, SVG Export Plug-In . SVG Version: 6.00 Build 0)  -->
<svg version="1.1" id="Layer_1" xmlns="http://www.w3.org/2000/svg" xmlns:xlink="http://www.w3.org/1999/xlink" x="0px" y="0px"
	 viewBox="0 0 512 512" style="enable-background:new 0 0 512 512;" xml:space="preserve">
<path style="fill:#88C5CC;" d="M256,0C114.616,0,0,114.616,0,256s114.616,256,256,256s256-114.616,256-256S397.384,0,256,0z"/>
<path style="fill:#80B9BF;" d="M430.424,443.304c-0.156-0.368-0.288-0.744-0.448-1.108c-0.508-1.376-1.076-2.744-1.66-4.1
	c-0.504-1.376-1.072-2.74-1.656-4.092c-0.236-0.644-0.488-1.28-0.748-1.916c-0.528-1.448-1.108-2.888-1.732-4.312
	c-0.504-1.376-1.068-2.74-1.656-4.088c-0.504-1.376-1.072-2.748-1.66-4.104c-0.504-1.372-1.068-2.728-1.652-4.084
	c-0.504-1.38-1.072-2.748-1.66-4.104c-0.504-1.372-1.068-2.732-1.652-4.084c-0.508-1.38-1.072-2.748-1.66-4.1
	c-0.496-1.36-1.056-2.704-1.628-4.044c-0.512-1.392-1.084-2.772-1.676-4.144c-0.504-1.376-1.076-2.74-1.656-4.096
	c-0.504-1.372-1.072-2.732-1.656-4.084c-0.504-1.376-1.076-2.74-1.656-4.096c-0.508-1.38-1.076-2.74-1.656-4.092
	c-0.504-1.376-1.076-2.736-1.656-4.092c-0.508-1.376-1.076-2.736-1.656-4.088c-0.5-1.364-1.06-2.708-1.636-4.052
	c-0.512-1.388-1.08-2.76-1.672-4.132c-0.244-0.66-0.504-1.316-0.76-1.976c-0.528-1.428-1.1-2.848-1.72-4.256
	c-0.504-1.376-1.068-2.74-1.656-4.092c-0.504-1.376-1.068-2.736-1.656-4.092c-0.504-1.376-1.072-2.74-1.656-4.092
	c-0.508-1.376-1.068-2.736-1.656-4.088c-0.5-1.356-1.056-2.704-1.628-4.044c-0.516-1.4-1.084-2.78-1.68-4.156
	c-0.504-1.368-1.072-2.728-1.652-4.08c-0.504-1.384-1.076-2.752-1.66-4.108c-0.504-1.368-1.072-2.728-1.652-4.084
	c-0.504-1.376-1.076-2.744-1.66-4.104c-0.504-1.368-1.072-2.736-1.656-4.088c-0.5-1.356-1.056-2.704-1.636-4.044
	c-0.508-1.392-1.08-2.772-1.672-4.144c-0.504-1.372-1.068-2.732-1.656-4.088c-0.504-1.376-1.072-2.74-1.656-4.092
	c-0.508-1.376-1.072-2.736-1.656-4.092c-0.508-1.376-1.072-2.736-1.656-4.088c-0.244-0.66-0.504-1.312-0.756-1.964
	c-0.524-1.428-1.104-2.852-1.724-4.264c-0.496-1.36-1.056-2.704-1.628-4.048c-0.512-1.392-1.084-2.764-1.676-4.14
	c-0.504-1.376-1.076-2.74-1.66-4.1c-0.504-1.368-1.068-2.732-1.652-4.084c-0.504-1.376-1.072-2.74-1.656-4.096
	c-0.504-1.376-1.076-2.744-1.656-4.096c-0.508-1.372-1.076-2.736-1.656-4.088c-0.504-1.376-1.076-2.74-1.656-4.096
	c-0.5-1.356-1.06-2.704-1.636-4.044c-0.512-1.388-1.08-2.764-1.672-4.136c-0.508-1.38-1.072-2.748-1.66-4.108
	c-0.504-1.372-1.068-2.728-1.652-4.084c-0.508-1.38-1.072-2.744-1.664-4.104c-0.504-1.372-1.064-2.728-1.648-4.084
	c-0.508-1.376-1.072-2.74-1.66-4.096c-0.508-1.376-1.072-2.744-1.66-4.1c-0.236-0.636-0.48-1.268-0.736-1.904
	c-0.532-1.452-1.116-2.892-1.74-4.324c-0.504-1.372-1.072-2.732-1.652-4.084c-0.508-1.38-1.076-2.748-1.66-4.108
	c-0.504-1.368-1.072-2.724-1.652-4.076c-0.504-1.38-1.076-2.744-1.66-4.104c-0.504-1.372-1.072-2.736-1.656-4.088
	c-0.504-1.376-1.068-2.74-1.656-4.096c-0.5-1.36-1.06-2.708-1.64-4.052c-0.508-1.388-1.076-2.76-1.664-4.128
	c-0.508-1.376-1.072-2.744-1.66-4.104c-0.508-1.372-1.072-2.736-1.656-4.088c-0.508-1.376-1.072-2.74-1.656-4.096
	c-0.508-1.376-1.072-2.736-1.66-4.092c-0.504-1.376-1.068-2.736-1.652-4.092c-0.504-1.36-1.06-2.712-1.636-4.052
	c-0.508-1.388-1.08-2.76-1.668-4.128c-0.504-1.372-1.072-2.736-1.656-4.092c-0.508-1.38-1.08-2.748-1.664-4.112
	c-4.416-11.996-11.956-23.34-22.416-33.552c-0.192-0.52-0.412-1.016-0.648-1.508c-0.248-0.748-0.528-1.464-0.872-2.156
	c-0.228-0.668-0.48-1.32-0.788-1.944c-0.244-0.744-0.524-1.46-0.868-2.152c-0.228-0.668-0.48-1.32-0.784-1.944
	c-0.248-0.744-0.528-1.46-0.872-2.148c-0.224-0.668-0.48-1.32-0.78-1.948c-0.252-0.744-0.532-1.464-0.876-2.156
	c-0.228-0.668-0.48-1.316-0.784-1.944c-0.248-0.744-0.528-1.46-0.872-2.152c-0.224-0.664-0.468-1.304-0.772-1.924
	c-0.252-0.752-0.528-1.476-0.88-2.172c-0.228-0.668-0.476-1.316-0.784-1.944c-0.248-0.748-0.524-1.464-0.868-2.156
	c-0.232-0.668-0.48-1.316-0.788-1.94c-0.248-0.744-0.524-1.46-0.868-2.152c-0.232-0.668-0.48-1.32-0.788-1.944
	c-2.088-6.4-8.036-11.056-15.14-11.056c-0.684,0-1.336,0.116-2,0.2c0,0,0,0,0.004,0c-7.88,0.996-14.004,7.648-14.004,15.8
	c0,2.512,0.604,4.868,1.636,6.98c0.232,0.712,0.508,1.396,0.832,2.056c0.232,0.704,0.504,1.384,0.824,2.04
	c0.232,0.712,0.508,1.396,0.832,2.056c0.204,0.616,0.432,1.216,0.712,1.8C215.936,110.428,200,136.448,200,164
	c0,6.144,1.012,11.084,2.844,15.088c0.252,0.708,0.528,1.392,0.828,2.048c0.252,0.708,0.528,1.392,0.828,2.048
	c0.252,0.708,0.528,1.392,0.828,2.048c0.252,0.708,0.528,1.392,0.828,2.048c0.252,0.708,0.528,1.392,0.828,2.048
	c0.252,0.696,0.516,1.368,0.812,2.012c0.252,0.72,0.532,1.412,0.836,2.08c0.252,0.712,0.532,1.4,0.832,2.056
	c0.252,0.708,0.528,1.392,0.828,2.048c0.252,0.708,0.528,1.392,0.828,2.048c0.252,0.708,0.528,1.392,0.828,2.048
	c0.252,0.708,0.528,1.392,0.828,2.048c0.252,0.708,0.528,1.392,0.828,2.048c0.252,0.708,0.528,1.392,0.828,2.048
	c0.252,0.708,0.528,1.392,0.828,2.048c0.252,0.708,0.528,1.392,0.828,2.048c0.116,0.336,0.236,0.688,0.368,1.012
	C213.828,214.196,212,216.88,212,220c0,1.284,0.336,2.488,0.884,3.568c0.112,1.704,0.744,3.384,1.736,4.808
	c0.228,1.44,0.808,2.828,1.652,4.028c0.224,1.44,0.804,2.824,1.652,4.02c0.22,1.448,0.8,2.836,1.648,4.032
	c0.224,1.452,0.804,2.832,1.656,4.028c0.22,1.452,0.796,2.836,1.652,4.024c0.22,1.456,0.796,2.84,1.656,4.028
	c0.208,1.46,0.792,2.84,1.652,4.024c0.204,1.428,0.76,2.78,1.592,3.944C222.52,304.444,210.684,357.3,184,404h-4c-4.4,0-8,3.6-8,8
	c0,1.288,0.336,2.492,0.884,3.572c0.116,1.616,0.72,3.032,1.668,4.164c0.068,0.732,0.22,1.424,0.464,2.072
	c-1.82,1.468-3.016,3.688-3.016,6.2c0,1.26,0.324,2.44,0.852,3.512c0.048,1.584,0.54,3.144,1.376,4.488H164c-4.4,0-8,3.596-8,8
	c0,1.276,0.332,2.476,0.876,3.552c-0.008,0.152-0.048,0.296-0.048,0.448c0,1.864,0.672,3.56,1.752,4.924
	c0.18,1.5,0.76,2.868,1.656,4c0.176,1.5,0.756,2.864,1.652,3.992c0.176,1.508,0.76,2.876,1.656,4.008c0.176,1.5,0.76,2.868,1.656,4
	c0.176,1.5,0.76,2.868,1.656,4c0.176,1.5,0.76,2.868,1.656,4c0.176,1.5,0.76,2.868,1.656,4c0.176,1.5,0.76,2.868,1.656,4
	c0.176,1.5,0.76,2.868,1.656,4c0.176,1.5,0.752,2.864,1.652,3.992c0.176,1.508,0.756,2.876,1.656,4.008
	c0.116,1.04,0.5,1.976,0.98,2.852C202.432,507.688,228.712,512,256,512C323.416,512,384.708,485.9,430.424,443.304z"/>
<path style="fill:#E6E6E6;" d="M280,180c-12,0-24,0-24,0s-12,0-24,0c0,36,0,140-48,224c36,0,72,0,72,0s36,0,72,0
	C280,320,280,216,280,180z"/>
<path style="fill:#CCCCCC;" d="M280,180c-5.788,0-11.56,0-16,0c0,36,0,140,48,224c5.256,0,10.62,0,16,0C280,320,280,216,280,180z"/>
<path style="fill:#263740;" d="M340,412c0,4.4-3.6,8-8,8H180c-4.4,0-8-3.6-8-8l0,0c0-4.4,3.6-8,8-8h152C336.4,404,340,407.6,340,412
	L340,412z"/>
<path style="fill:#1E2C33;" d="M332,404h-16c4.4,0,8,3.6,8,8s-3.6,8-8,8h16c4.4,0,8-3.6,8-8S336.4,404,332,404z"/>
<path style="fill:#CC584C;" d="M340,428c0,4.4-3.6,8-8,8H180c-4.4,0-8-3.6-8-8l0,0c0-4.4,3.6-8,8-8h152C336.4,420,340,423.6,340,428
	L340,428z"/>
<path style="fill:#263740;" d="M356,444c0,4.4-3.6,8-8,8H164c-4.4,0-8-3.6-8-8l0,0c0-4.4,3.6-8,8-8h184C352.4,436,356,439.6,356,444
	L356,444z"/>
<path style="fill:#1E2C33;" d="M348,436h-16c4.4,0,8,3.6,8,8s-3.6,8-8,8h16c4.4,0,8-3.6,8-8S352.4,436,348,436z"/>
<path style="fill:#B34D43;" d="M332,420h-16c4.4,0,8,3.6,8,8s-3.6,8-8,8h16c4.4,0,8-3.6,8-8S336.4,420,332,420z"/>
<polygon style="fill:#E6E6E6;" points="296,220 216,220 224,188 288,188 "/>
<polygon style="fill:#CCCCCC;" points="288,188 272,188 280,220 296,220 "/>
<path style="fill:#263740;" d="M312,164c0,30.944-25.048,32-56,32c-30.936,0-56-1.056-56-32c0-30.94,20-60,56-80
	C292,104,312,133.06,312,164z"/>
<path style="fill:#1E2C33;" d="M256,84c-2.772,1.54-5.416,3.152-8,4.8c30.928,19.708,48,46.644,48,75.2
	c0,28.22-20.852,31.572-48,31.944c2.62,0.036,5.276,0.056,8,0.056c30.952,0,56-1.056,56-32C312,133.06,292,104,256,84z"/>
<circle style="fill:#CC584C;" cx="256" cy="76" r="16"/>
<path style="fill:#BF5347;" d="M256,60c-0.684,0-1.336,0.116-2,0.2c7.888,0.996,14,7.648,14,15.8s-6.112,14.804-14,15.8
	c0.664,0.084,1.316,0.2,2,0.2c8.844,0,16-7.164,16-16S264.844,60,256,60z"/>
<path style="fill:#CC584C;" d="M292,236c0-4.4-3.6-8-8-8h-56c-4.4,0-8,3.6-8,8l0,0c0,4.4,3.6,8,8,8h56C288.4,244,292,240.4,292,236
	L292,236z"/>
<path style="fill:#263740;" d="M300,220c0-4.4-3.6-8-8-8h-72c-4.4,0-8,3.6-8,8l0,0c0,4.4,3.6,8,8,8h72C296.4,228,300,224.4,300,220
	L300,220z"/>
<path style="fill:#1E2C33;" d="M292,228h-16c4.4,0,8-3.6,8-8s-3.6-8-8-8h16c4.4,0,8,3.6,8,8S296.4,228,292,228z"/>
<path style="fill:#B34D43;" d="M284,244h-16c4.4,0,8-3.6,8-8s-3.6-8-8-8h16c4.4,0,8,3.6,8,8S288.4,244,284,244z"/>
<g>
</g>
<g>
</g>
<g>
</g>
<g>
</g>
<g>
</g>
<g>
</g>
<g>
</g>
<g>
</g>
<g>
</g>
<g>
</g>
<g>
</g>
<g>
</g>
<g>
</g>
<g>
</g>
<g>
</g>
</svg>
