<?xml version="1.0" encoding="iso-8859-1"?>
<!-- Generator: Adobe Illustrator 19.0.0, SVG Export Plug-In . SVG Version: 6.00 Build 0)  -->
<svg version="1.1" id="Layer_1" xmlns="http://www.w3.org/2000/svg" xmlns:xlink="http://www.w3.org/1999/xlink" x="0px" y="0px"
	 viewBox="0 0 512 512" style="enable-background:new 0 0 512 512;" xml:space="preserve">
<circle style="fill:#4AB8A1;" cx="256" cy="256" r="256"/>
<path style="fill:#43A691;" d="M364,84v-2c0-4.4-1.6-6-6-6h-48c-4.4,0-10,1.6-10,6v2.048v2.048V98c0,4.4-1.6,10-6,10h-6l-12-24v-2
	c0-4.4-1.6-6-6-6h-12h-20c-4.4,0-10,1.6-10,6v2.048v2.048V98c0,4.4-1.6,10-6,10h-6l-12-24v-2c0-4.4-1.6-6-6-6h-12h-40
	c-4.4,0-10,1.6-10,6v2.048v2.048V150v2l44,112v76v0.148c-8.14,0.72-16,5.72-16,13.852v2.048v2.048V380h-10c-8.8,0-18,5.2-18,14
	v2.048v2.048V436l21.98,56.524C188.176,505.056,221.272,512,256,512c97.452,0,182.172-54.46,225.42-134.6L364,84z"/>
<path style="fill:#CC584C;" d="M336,160v18c0,4.4-1.6,10-6,10H178c-4.4,0-10-5.6-10-10v-18H336z"/>
<path style="fill:#B34D43;" d="M320,160v18c0,4.4-1.6,10-6,10h16c4.4,0,6-5.6,6-10v-18H320z"/>
<rect x="180" y="188" style="fill:#E6E6E6;" width="144" height="152"/>
<rect x="308" y="188" style="fill:#CCCCCC;" width="16" height="152"/>
<path style="fill:#263740;" d="M310,76c-4.4,0-10,1.6-10,6v16c0,4.4-1.6,10-6,10h-8c-4.4,0-10-5.6-10-10V82c0-4.4-1.6-6-6-6h-32
	c-4.4,0-10,1.6-10,6v16c0,4.4-1.6,10-6,10h-8c-4.4,0-10-5.6-10-10V82c0-4.4-1.6-6-6-6h-52c-4.4,0-10,1.6-10,6v68c0,4.4,5.6,10,10,10
	h212c4.4,0,6-5.6,6-10V82c0-4.4-1.6-6-6-6H310z"/>
<g>
	<path style="fill:#1E2C33;" d="M264,82v16c0,4.4,5.6,10,10,10h8c0.696,0,0.356-1.116,1-1.284c-3.428-0.9-7-5.008-7-8.716V82
		c0-4.4-1.6-6-6-6h-12C262.4,76,264,77.6,264,82z"/>
	<path style="fill:#1E2C33;" d="M192,82v16c0,4.4,5.6,10,10,10h8c0.696,0,0.356-1.116,1-1.284c-3.428-0.9-7-5.008-7-8.716V82
		c0-4.4-1.6-6-6-6h-12C190.4,76,192,77.6,192,82z"/>
	<path style="fill:#1E2C33;" d="M364,82c0-3.316-2.688-6-6-6l0,0c-3.312,0-6,2.684-6,6v72c0,3.316,2.688,6,6,6l0,0
		c3.312,0,6-2.684,6-6V82z"/>
</g>
<path style="fill:#CC584C;" d="M340,380v-26c0-8.8-5.2-14-14-14H182c-8.8,0-18,5.2-18,14v26H340z"/>
<path style="fill:#B34D43;" d="M326,340h-16c8.8,0,14,5.2,14,14v26h16v-26C340,345.2,334.8,340,326,340z"/>
<path style="fill:#263740;" d="M372,436v-42c0-8.8-5.2-14-14-14H154c-8.8,0-18,5.2-18,14v42H372z"/>
<path style="fill:#1E2C33;" d="M358,380h-16c8.8,0,14,5.2,14,14v42h16v-42C372,385.2,366.8,380,358,380z"/>
<g>
</g>
<g>
</g>
<g>
</g>
<g>
</g>
<g>
</g>
<g>
</g>
<g>
</g>
<g>
</g>
<g>
</g>
<g>
</g>
<g>
</g>
<g>
</g>
<g>
</g>
<g>
</g>
<g>
</g>
</svg>
