<?xml version="1.0" encoding="iso-8859-1"?>
<!-- Generator: Adobe Illustrator 19.0.0, SVG Export Plug-In . SVG Version: 6.00 Build 0)  -->
<svg version="1.1" id="Layer_1" xmlns="http://www.w3.org/2000/svg" xmlns:xlink="http://www.w3.org/1999/xlink" x="0px" y="0px"
	 viewBox="0 0 512 512" style="enable-background:new 0 0 512 512;" xml:space="preserve">
<circle style="fill:#C1D354;" cx="256" cy="256" r="256"/>
<path style="fill:#9DB138;" d="M287.096,510.049c111.649-13.53,201.088-98.877,220.78-208.507l-191.977-191.98h-29.947v14.966
	l-14.968-14.966h-29.942v7.624v7.342l-14.973-14.973v0.005h-29.947v31.345v25.923c0,4.024,1.495,8.003,4.536,11.092l14.973,14.971
	h-13.709c-1.311,0-2.57,0.468-3.553,1.454c-0.937,0.934-1.454,2.24-1.454,3.505v0.704c0,1.306,0.517,2.57,1.454,3.558l26.386,26.386
	v31.119v7.429c0,3.259-0.161,6.474-0.484,9.643c-0.108,1.055-0.328,2.074-0.463,3.121c-0.284,2.099-0.538,4.209-0.955,6.264
	c-0.2,0.983-0.507,1.923-0.732,2.908c-0.499,2.084-0.968,4.178-1.595,6.198c-0.189,0.62-0.451,1.206-0.653,1.823
	c-0.778,2.363-1.595,4.713-2.557,6.989c-0.161,0.379-0.366,0.742-0.53,1.121c-1.07,2.452-2.209,4.874-3.471,7.217
	c-0.233,0.422-0.507,0.804-0.745,1.226c-1.265,2.255-2.573,4.483-4.009,6.61c-0.556,0.814-1.185,1.572-1.761,2.365
	c-1.211,1.679-2.401,3.379-3.715,4.972c-1.946,2.353-4.004,4.631-6.167,6.792h-1.682c-1.078,0-2.153,0.415-2.949,1.216
	c-0.794,0.794-1.219,1.866-1.219,2.9c0,0.535,0.113,1.055,0.31,1.551c0.036,0.087,0.097,0.148,0.141,0.233
	c0.169,0.358,0.351,0.722,0.632,1.016c0.041,0.054,0.092,0.095,0.136,0.141c0.046,0.051,0.095,0.1,0.143,0.148l3.666,3.617
	c-0.584,5.076-2.752,9.644-6.098,13.125c-0.215,0.23-0.433,0.451-0.658,0.666c-0.863,0.827-1.787,1.59-2.772,2.281
	c-0.189,0.133-0.394,0.266-0.589,0.392c-1.055,0.686-2.163,1.3-3.328,1.797c-0.169,0.079-0.351,0.138-0.525,0.21
	c-1.226,0.499-2.501,0.906-3.82,1.185c-0.115,0.026-0.238,0.038-0.358,0.059c-1.4,0.266-2.844,0.435-4.326,0.435v10.711
	c0,1.503,0.563,2.949,1.731,4.122l4.116,4.114v1.685h-0.051c-1.492,0-2.947,0.556-4.065,1.679c-1.17,1.129-1.731,2.619-1.731,4.073
	v0.893c0,1.446,0.563,2.941,1.731,4.063l4.116,4.119v1.684L287.096,510.049z"/>
<g>
	<rect x="224.742" y="177.28" style="fill:#34495E;" width="62.505" height="18.88"/>
	<path style="fill:#34495E;" d="M315.663,342.543H196.339c0,12.564-10.176,22.728-22.712,22.728h164.741
		C325.837,365.271,315.663,355.108,315.663,342.543z"/>
</g>
<rect x="179.456" y="381.798" style="fill:#283A4D;" width="153.101" height="20.634"/>
<g>
	<path style="fill:#5D6D7E;" d="M320.914,338.44c0,1.039-0.407,2.107-1.208,2.924c-0.801,0.794-1.864,1.18-2.916,1.18H195.215
		c-1.062,0-2.115-0.387-2.908-1.18c-0.819-0.814-1.231-1.882-1.231-2.924l0,0c0-1.052,0.415-2.12,1.231-2.934
		c0.794-0.788,1.846-1.193,2.908-1.193h121.577c1.052,0,2.112,0.405,2.916,1.193C320.507,336.32,320.914,337.388,320.914,338.44
		L320.914,338.44z"/>
	<path style="fill:#5D6D7E;" d="M173.627,365.271v10.737c0,1.482,0.576,2.949,1.708,4.088c1.116,1.137,2.588,1.708,4.07,1.708
		h153.193c1.487,0,2.949-0.571,4.081-1.708s1.692-2.606,1.692-4.088v-10.737H173.627z"/>
	<path style="fill:#5D6D7E;" d="M338.368,392.54c0,1.467-0.563,2.941-1.692,4.081c-1.129,1.119-2.593,1.672-4.081,1.672H179.402
		c-1.482,0-2.954-0.556-4.07-1.672c-1.132-1.137-1.708-2.614-1.708-4.081v-0.85c0-1.452,0.576-2.949,1.708-4.083
		c1.116-1.134,2.588-1.687,4.07-1.687h153.193c1.487,0,2.949,0.553,4.081,1.687c1.129,1.132,1.692,2.629,1.692,4.083L338.368,392.54
		L338.368,392.54z"/>
	<path style="fill:#5D6D7E;" d="M315.899,198.574c0,1.285-0.492,2.578-1.475,3.525c-0.957,0.96-2.24,1.459-3.517,1.459h-109
		c-1.277,0-2.55-0.502-3.525-1.459c-0.963-0.95-1.446-2.24-1.446-3.525v-0.704c0-1.254,0.484-2.56,1.446-3.51
		c0.975-0.991,2.248-1.454,3.525-1.454h109c1.277,0,2.56,0.463,3.517,1.454c0.983,0.95,1.475,2.255,1.475,3.51V198.574
		L315.899,198.574z"/>
	<path style="fill:#5D6D7E;" d="M285.952,109.563v24.315h-14.981v-24.315h-29.947v24.315h-14.979v-24.315h-29.942v57.295
		c0,3.996,1.521,8,4.575,11.052c3.049,3.052,7.05,4.575,11.046,4.575h88.543c4.001,0,8-1.523,11.044-4.575
		c3.054-3.052,4.585-7.055,4.585-11.052v-57.295H285.952z"/>
</g>
<path style="fill:#34495E;" d="M196.936,334.305h118.124c-17.178-17.234-27.804-40.986-27.804-67.241v-42.665
	c0-11.505,9.321-20.823,20.828-20.823H203.917c11.512,0,20.831,9.318,20.831,20.823v42.665
	C224.748,293.32,214.126,317.069,196.936,334.305z"/>
<g>
</g>
<g>
</g>
<g>
</g>
<g>
</g>
<g>
</g>
<g>
</g>
<g>
</g>
<g>
</g>
<g>
</g>
<g>
</g>
<g>
</g>
<g>
</g>
<g>
</g>
<g>
</g>
<g>
</g>
</svg>
